<svg width="276" height="51" viewBox="0 0 276 51" fill="none" xmlns="http://www.w3.org/2000/svg">
<rect x="0.398438" y="0.124023" width="275" height="50" fill="#FF684C"/>
<path d="M30.2917 22.2178C29.4115 23.1084 28.9714 24.21 28.9714 25.5225C28.9714 26.835 29.4115 27.9365 30.2917 28.8271C31.172 29.7178 32.2527 30.1631 33.5339 30.1631C34.8152 30.1631 35.8959 29.7178 36.7761 28.8271C37.6563 27.9365 38.0964 26.835 38.0964 25.5225C38.0964 24.21 37.6563 23.1084 36.7761 22.2178C35.8959 21.3271 34.8152 20.8818 33.5339 20.8818C32.2527 20.8818 31.172 21.3271 30.2917 22.2178ZM37.6121 21.4443C38.7319 22.5641 39.2917 23.9235 39.2917 25.5225C39.2917 27.1214 38.7319 28.4808 37.6121 29.6006C36.4923 30.7204 35.1329 31.2803 33.5339 31.2803C31.935 31.2803 30.5756 30.7204 29.4558 29.6006C28.336 28.4808 27.7761 27.1214 27.7761 25.5225C27.7761 23.9235 28.336 22.5641 29.4558 21.4443C30.5756 20.3245 31.935 19.7646 33.5339 19.7646C35.1329 19.7646 36.4923 20.3245 37.6121 21.4443ZM45.0555 21.0459V24.4053H48.1727C49.1623 24.4053 49.9956 24.7334 50.6727 25.3896C51.355 26.0459 51.6961 26.8376 51.6961 27.7646C51.6961 28.6917 51.355 29.4834 50.6727 30.1396C49.9956 30.7959 49.1623 31.124 48.1727 31.124H43.8524V19.9209H50.8133V21.0459H45.0555ZM45.0555 30.0068H48.1727C48.8446 30.0068 49.3992 29.7933 49.8367 29.3662C50.2742 28.9391 50.493 28.4053 50.493 27.7646C50.493 27.124 50.2742 26.5902 49.8367 26.1631C49.3992 25.736 48.8446 25.5225 48.1727 25.5225H45.0555V30.0068ZM57.2177 29.6006C56.0979 28.4808 55.538 27.1214 55.538 25.5225C55.538 23.9235 56.0979 22.5641 57.2177 21.4443C58.3375 20.3245 59.6969 19.7646 61.2958 19.7646C61.8635 19.7646 62.4078 19.8454 62.9286 20.0068C63.4495 20.1631 63.8791 20.3532 64.2177 20.5771C64.5614 20.8011 64.8609 21.0277 65.1161 21.2568C65.3765 21.486 65.564 21.6813 65.6786 21.8428L65.8583 22.085L65.0536 22.8037C65.0224 22.7516 64.9755 22.6839 64.913 22.6006C64.8505 22.512 64.7047 22.3584 64.4755 22.1396C64.2463 21.9209 63.9963 21.7282 63.7255 21.5615C63.4599 21.3896 63.1083 21.2334 62.6708 21.0928C62.2333 20.9521 61.775 20.8818 61.2958 20.8818C60.0146 20.8818 58.9338 21.3271 58.0536 22.2178C57.1734 23.1084 56.7333 24.21 56.7333 25.5225C56.7333 26.835 57.1734 27.9365 58.0536 28.8271C58.9338 29.7178 60.0146 30.1631 61.2958 30.1631C61.775 30.1631 62.2333 30.098 62.6708 29.9678C63.1083 29.8324 63.4703 29.6709 63.7567 29.4834C64.0484 29.2959 64.3036 29.111 64.5224 28.9287C64.7411 28.7412 64.8974 28.5771 64.9911 28.4365L65.1396 28.2412L65.9364 28.9678C65.8948 29.0303 65.8297 29.1136 65.7411 29.2178C65.6578 29.3167 65.4677 29.499 65.1708 29.7646C64.8791 30.0303 64.5692 30.2673 64.2411 30.4756C63.913 30.6839 63.4807 30.8714 62.9442 31.0381C62.413 31.1995 61.8635 31.2803 61.2958 31.2803C59.6969 31.2803 58.3375 30.7204 57.2177 29.6006ZM73.7783 26.4834L76.8174 19.9209H78.0986L73.9346 28.6475C73.4762 29.6058 73.0101 30.2855 72.5361 30.6865C72.0622 31.0824 71.4346 31.2803 70.6533 31.2803C70.4814 31.2803 70.3096 31.2673 70.1377 31.2412C69.971 31.2152 69.846 31.1865 69.7627 31.1553L69.6142 31.124V30.0068C69.8799 30.111 70.2002 30.1631 70.5752 30.1631C71.0752 30.1631 71.471 30.0485 71.7627 29.8193C72.0596 29.5902 72.3564 29.1995 72.6533 28.6475L73.1377 27.7646C72.7939 27.1136 72.1429 25.8896 71.1846 24.0928C70.2262 22.2959 69.4892 20.9053 68.9736 19.9209H70.2549L73.7783 26.4834ZM79.6202 30.0068H80.2608C80.3129 29.9652 80.3832 29.8949 80.4717 29.7959C80.5655 29.6917 80.727 29.4495 80.9561 29.0693C81.1853 28.6891 81.3884 28.2646 81.5655 27.7959C81.7426 27.3271 81.9014 26.6917 82.0421 25.8896C82.1879 25.0824 82.2608 24.2126 82.2608 23.2803V19.9209H89.1436V30.0068H90.503V33.5225H89.2999V31.124H80.8233V33.5225H79.6202V30.0068ZM83.4639 23.2803C83.4639 24.1865 83.3962 25.0407 83.2608 25.8428C83.1254 26.6449 82.9639 27.2881 82.7764 27.7725C82.5941 28.2568 82.4092 28.6787 82.2217 29.0381C82.0342 29.3923 81.8702 29.6396 81.7296 29.7803L81.5421 30.0068H87.9405V21.0459H83.4639V23.2803ZM103.696 31.124H102.501V22.085L95.6183 31.124H94.5792V19.9209H95.7824V28.9678L102.657 19.9209H103.696V31.124ZM107.624 19.9209H115.866V21.0459H112.343V31.124H111.148V21.0459H107.624V19.9209ZM124.021 31.124H119.779V19.9209H120.982V24.085H124.021C125.057 24.085 125.917 24.4209 126.599 25.0928C127.281 25.7646 127.622 26.6032 127.622 27.6084C127.622 28.6084 127.281 29.4443 126.599 30.1162C125.917 30.7881 125.057 31.124 124.021 31.124ZM120.982 30.0068H124.021C124.745 30.0068 125.326 29.7881 125.763 29.3506C126.201 28.9131 126.419 28.3324 126.419 27.6084C126.419 26.8792 126.201 26.2959 125.763 25.8584C125.326 25.4209 124.745 25.2021 124.021 25.2021H120.982V30.0068ZM145.79 19.9209V31.124H144.587V21.0459H138.353V31.124H137.15V19.9209H145.79ZM151.07 19.9209H155.312C156.349 19.9209 157.208 20.2568 157.89 20.9287C158.572 21.6006 158.914 22.4391 158.914 23.4443C158.914 24.4443 158.57 25.2829 157.882 25.96C157.2 26.6318 156.343 26.9678 155.312 26.9678H152.273V31.124H151.07V19.9209ZM155.312 21.0459H152.273V25.8428H155.312C156.036 25.8428 156.617 25.624 157.054 25.1865C157.492 24.749 157.71 24.1683 157.71 23.4443C157.71 22.7204 157.492 22.1396 157.054 21.7021C156.617 21.2646 156.036 21.0459 155.312 21.0459ZM165.193 22.2178C164.313 23.1084 163.873 24.21 163.873 25.5225C163.873 26.835 164.313 27.9365 165.193 28.8271C166.073 29.7178 167.154 30.1631 168.435 30.1631C169.716 30.1631 170.797 29.7178 171.677 28.8271C172.558 27.9365 172.998 26.835 172.998 25.5225C172.998 24.21 172.558 23.1084 171.677 22.2178C170.797 21.3271 169.716 20.8818 168.435 20.8818C167.154 20.8818 166.073 21.3271 165.193 22.2178ZM172.513 21.4443C173.633 22.5641 174.193 23.9235 174.193 25.5225C174.193 27.1214 173.633 28.4808 172.513 29.6006C171.394 30.7204 170.034 31.2803 168.435 31.2803C166.836 31.2803 165.477 30.7204 164.357 29.6006C163.237 28.4808 162.677 27.1214 162.677 25.5225C162.677 23.9235 163.237 22.5641 164.357 21.4443C165.477 20.3245 166.836 19.7646 168.435 19.7646C170.034 19.7646 171.394 20.3245 172.513 21.4443ZM179.957 30.0068H186.597V31.124H178.754V19.9209H186.433V21.0459H179.957V24.7256H185.152V25.8428H179.957V30.0068ZM192.111 26.2412L197.869 19.9209H199.385L195.15 24.5615L199.791 31.124H198.346L194.346 25.4443L192.111 27.8428V31.124H190.908V19.9209H192.111V26.2412ZM202.187 19.9209H210.43V21.0459H206.906V31.124H205.711V21.0459H202.187V19.9209Z" fill="white"/>
<path d="M248.981 25.1241L226.296 25.1241M248.981 25.1241L242.592 31.5132M248.981 25.1241L242.592 18.735" stroke="white"/>
</svg>
