<?xml version="1.0" standalone="no"?>
<!DOCTYPE svg PUBLIC "-//W3C//DTD SVG 20010904//EN"
 "http://www.w3.org/TR/2001/REC-SVG-20010904/DTD/svg10.dtd">
<svg version="1.0" xmlns="http://www.w3.org/2000/svg"
 width="1052.000000pt" height="906.000000pt" viewBox="0 0 1052.000000 906.000000"
 preserveAspectRatio="xMidYMid meet">
<metadata>
Created by potrace 1.15, written by Peter Selinger 2001-2017
</metadata>
<g transform="translate(0.000000,906.000000) scale(0.100000,-0.100000)"
fill="#4a9bff" stroke="none">
<path d="M5355 8845 l-25 -24 0 -314 c0 -301 1 -314 20 -335 21 -22 23 -22
379 -22 334 0 359 1 374 18 15 17 17 55 17 345 0 325 0 326 -22 341 -19 14
-72 16 -371 16 l-348 0 -24 -25z"/>
<path d="M3463 7983 c-10 -4 -13 -82 -13 -343 0 -325 1 -340 19 -350 13 -6
147 -10 368 -10 299 0 352 2 371 16 22 15 22 16 22 335 0 202 -4 327 -10 340
-10 18 -25 19 -378 18 -202 0 -373 -3 -379 -6z"/>
<path d="M4412 7978 c-9 -9 -12 -99 -12 -345 0 -322 1 -333 20 -343 13 -7 138
-10 380 -8 308 3 362 5 370 18 15 23 13 663 -2 678 -9 9 -107 12 -378 12 -271
0 -369 -3 -378 -12z"/>
<path d="M5346 7968 c-14 -19 -16 -68 -16 -335 0 -301 1 -314 20 -333 20 -20
30 -21 386 -18 311 3 366 5 374 18 14 21 13 646 0 671 -10 18 -25 19 -380 19
l-369 0 -15 -22z"/>
<path d="M7798 7703 c-157 -242 -231 -480 -231 -743 -1 -174 27 -302 99 -455
15 -33 36 -72 46 -87 l19 -27 -38 -19 c-77 -39 -224 -82 -353 -104 -46 -8
-847 -13 -2697 -17 l-2631 -6 -43 -30 c-24 -17 -57 -50 -74 -74 l-30 -43 1
-231 c2 -275 28 -489 98 -787 28 -119 108 -361 151 -455 107 -234 179 -359
283 -495 294 -381 666 -585 1272 -699 278 -52 535 -74 870 -74 492 0 883 52
1335 177 291 81 664 245 928 410 101 63 324 226 399 292 166 146 451 455 544
589 233 336 366 575 513 920 39 94 78 185 86 203 l15 32 95 0 c199 0 394 45
566 131 226 114 417 320 495 536 13 37 22 73 20 79 -8 21 -128 99 -194 127
-128 54 -253 79 -432 84 -92 3 -213 0 -274 -6 -60 -6 -111 -10 -112 -8 -2 2
-15 48 -29 103 -52 200 -150 375 -292 521 -84 86 -193 171 -285 222 l-57 32
-63 -98z"/>
<path d="M2522 7108 c-9 -9 -12 -98 -12 -338 0 -304 1 -328 18 -343 17 -15 57
-17 375 -17 310 0 358 2 371 16 14 13 16 59 16 343 0 241 -3 330 -12 339 -9 9
-107 12 -378 12 -271 0 -369 -3 -378 -12z"/>
<path d="M3462 7108 c-9 -9 -12 -99 -12 -345 0 -318 1 -333 19 -343 13 -6 149
-10 374 -10 330 0 355 1 370 18 15 16 17 55 17 336 0 200 -4 324 -10 337 -10
18 -25 19 -378 19 -273 0 -371 -3 -380 -12z"/>
<path d="M4412 7108 c-9 -9 -12 -99 -12 -345 0 -318 1 -333 19 -343 13 -6 149
-10 374 -10 330 0 355 1 370 18 15 16 17 55 17 336 0 200 -4 324 -10 337 -10
18 -25 19 -378 19 -273 0 -371 -3 -380 -12z"/>
<path d="M5346 7098 c-14 -19 -16 -68 -16 -335 0 -300 1 -314 20 -333 19 -19
33 -20 378 -20 335 0 360 1 375 18 15 16 17 55 17 336 0 200 -4 324 -10 337
-10 18 -25 19 -380 19 l-369 0 -15 -22z"/>
<path d="M6297 7102 c-15 -17 -17 -55 -17 -339 0 -297 1 -321 18 -336 17 -15
58 -17 379 -17 336 0 361 1 376 18 15 16 17 55 17 336 0 200 -4 324 -10 337
-10 18 -25 19 -379 19 -344 0 -369 -1 -384 -18z"/>
<path d="M1743 2669 c-44 -9 -80 -34 -103 -72 -19 -30 -20 -53 -20 -434 0
-277 -3 -403 -11 -403 -5 0 -27 13 -47 29 -172 136 -468 186 -717 120 -244
-64 -462 -262 -564 -513 -53 -131 -67 -354 -31 -506 56 -235 246 -468 464
-569 122 -57 207 -75 361 -75 152 0 231 16 350 68 194 86 380 285 451 482 51
140 54 190 54 999 0 714 -1 752 -19 792 -30 64 -97 97 -168 82z m-482 -1067
c157 -62 275 -185 331 -347 31 -88 30 -246 -2 -335 -94 -265 -379 -422 -644
-354 -95 24 -174 71 -251 149 -85 85 -131 174 -151 290 -33 185 44 387 193
506 68 54 85 63 172 95 58 21 79 24 181 21 89 -3 128 -9 171 -25z"/>
<path d="M5740 2666 c-46 -14 -72 -34 -96 -71 -18 -28 -19 -61 -19 -1135 0
-1030 1 -1107 17 -1137 40 -72 127 -100 200 -64 84 42 83 35 86 384 l3 308 92
59 c51 33 97 59 103 58 10 -3 65 -63 349 -384 82 -93 154 -174 160 -180 5 -6
55 -61 109 -122 130 -145 172 -165 261 -122 74 36 106 130 69 203 -9 17 -105
130 -213 252 -108 121 -210 236 -227 255 -17 19 -71 80 -120 135 -49 55 -97
110 -107 121 -18 21 -17 22 158 135 473 307 500 325 513 361 38 107 -32 218
-139 218 -43 0 -87 -22 -245 -126 -66 -43 -128 -83 -137 -89 -18 -12 -306
-200 -482 -315 -66 -44 -126 -79 -132 -80 -10 0 -13 139 -15 624 -3 617 -3
625 -24 653 -41 54 -107 78 -164 59z"/>
<path d="M2787 1925 c-172 -33 -294 -100 -432 -239 -143 -144 -199 -248 -236
-437 -23 -120 -24 -179 -4 -293 35 -198 114 -346 256 -481 114 -107 219 -166
369 -208 111 -31 324 -30 435 2 238 68 447 241 546 451 75 162 100 345 69 520
-55 319 -299 588 -606 670 -106 28 -291 35 -397 15z m336 -320 c245 -86 399
-328 367 -581 -9 -68 -29 -131 -66 -203 -28 -55 -153 -173 -219 -208 -319
-166 -706 16 -780 368 -19 89 -19 130 0 219 34 163 136 298 285 375 118 62
287 74 413 30z"/>
<path d="M4688 1930 c-184 -29 -342 -113 -474 -251 -160 -169 -234 -356 -234
-591 0 -199 59 -370 178 -520 121 -151 262 -246 447 -299 107 -31 313 -33 425
-5 137 34 300 125 367 204 28 33 39 99 23 146 -6 19 -27 49 -46 66 -30 26 -42
30 -93 30 -51 0 -65 -5 -107 -35 -73 -52 -173 -101 -232 -114 -292 -62 -586
130 -647 424 -19 89 -18 134 0 215 20 88 41 133 92 207 53 76 143 147 237 186
60 25 88 31 179 35 140 6 214 -17 340 -102 78 -52 95 -60 136 -60 56 0 114 32
136 74 23 45 19 121 -8 161 -51 75 -242 186 -378 219 -62 14 -273 21 -341 10z"/>
<path d="M7865 1929 c-185 -25 -350 -112 -485 -256 -126 -133 -194 -268 -224
-442 -20 -119 -20 -161 1 -286 30 -186 112 -335 261 -476 101 -96 216 -162
347 -200 111 -33 344 -34 450 -2 146 43 258 106 347 195 72 72 78 155 15 222
-67 71 -154 66 -245 -15 -154 -136 -402 -159 -597 -56 -90 48 -185 146 -228
237 -19 41 -33 78 -30 83 2 4 287 7 633 7 700 0 661 -4 711 69 21 32 24 46 22
116 -3 101 -40 249 -87 344 -106 215 -329 393 -559 446 -84 19 -244 26 -332
14z m259 -314 c146 -38 287 -149 352 -277 19 -37 34 -74 34 -83 0 -13 -58 -15
-517 -13 -339 2 -517 6 -516 13 8 34 32 87 60 130 121 188 372 286 587 230z"/>
<path d="M9111 1922 c-19 -9 -44 -30 -55 -45 -21 -28 -21 -36 -21 -785 0 -734
1 -758 19 -783 38 -48 67 -64 126 -64 68 0 114 29 141 89 17 38 19 73 19 441
0 232 5 418 11 444 19 85 82 197 143 256 150 145 363 193 567 129 127 -40 187
-23 230 64 40 81 8 164 -83 209 -140 70 -422 82 -590 24 -80 -27 -167 -70
-219 -108 -26 -18 -49 -33 -51 -33 -3 0 -8 17 -12 38 -12 80 -81 142 -156 142
-19 0 -50 -8 -69 -18z"/>
<path d="M9671 446 c-69 -39 -67 -147 4 -181 42 -19 70 -19 105 2 33 19 50 52
50 96 -1 74 -90 121 -159 83z m101 -7 c31 -17 49 -70 37 -112 -7 -25 -19 -39
-44 -52 -39 -18 -60 -14 -99 16 -44 35 -33 129 17 149 31 12 65 12 89 -1z"/>
</g>
</svg>
