<svg width="480" height="519" viewBox="0 0 480 519" fill="none" xmlns="http://www.w3.org/2000/svg">
<circle cx="189.777" cy="220.856" r="167.144" transform="rotate(-90 189.777 220.856)" fill="#F2F2F2"/>
<path d="M83.5688 178.714L43.8407 264.874L0.781143 264.874L66.134 123.141L101.912 123.141L167.265 264.874L124.205 264.874L84.4769 178.714L84.0229 177.729L83.5688 178.714Z" fill="white" stroke="#333333"/>
<path d="M34.2824 265.374L100.096 122.641L136.514 122.641L202.328 265.374L158.167 265.374L118.305 178.924L78.4432 265.374L34.2824 265.374Z" fill="#333333"/>
<path d="M386.363 15.2949L370.345 42.2836L370.09 42.7128L370.519 42.9683C421.176 73.1552 457.843 122.163 472.498 179.302C487.21 236.662 478.532 297.517 448.375 348.48C418.218 399.443 369.051 436.338 311.691 451.05L311.678 451.053L311.666 451.057C273.651 462.972 231.156 460.115 192.284 451.678C153.7 443.302 118.73 429.439 95.3299 419.125L129.891 359.281L196.882 366.724C214.294 377.021 228.799 383.678 243.875 386.494C258.984 389.316 274.626 388.272 294.296 383.227C333.668 373.129 367.417 347.804 388.117 312.822C408.817 277.841 414.773 236.069 404.675 196.697C394.626 157.517 369.499 123.907 334.784 103.181L334.354 102.924L334.098 103.355L316.089 133.697L267.861 126.191L218.366 16.9619L337.865 7.88082L386.363 15.2949Z" fill="#F9F9F9" stroke="#333333"/>
<mask id="mask0" mask-type="alpha" maskUnits="userSpaceOnUse" x="94" y="7" width="386" height="453">
<path d="M316.347 134.243L334.528 103.61C369.13 124.268 394.175 157.769 404.191 196.821C414.256 236.065 408.319 277.701 387.687 312.568C367.054 347.435 333.416 372.678 294.172 382.743C254.927 392.808 231.912 386.872 197.044 366.239L129.622 358.748L94.6182 419.357C141.447 440.042 235.551 475.437 311.815 451.534C369.304 436.79 418.581 399.811 448.806 348.735C479.03 297.658 487.727 236.666 472.982 179.177C458.294 121.911 421.545 72.7933 370.775 42.5388L387.172 14.9127L337.885 7.37793L217.616 16.5175L267.518 126.643L316.347 134.243Z" fill="#C4C4C4"/>
</mask>
<g mask="url(#mask0)">
<path d="M-210.122 39.7778L714.371 39.7779" stroke="#929292" strokeWidth="0.5"/>
<path d="M-210.123 81.8027L714.37 81.8028" stroke="#929292" strokeWidth="0.5"/>
<path d="M-210.122 123.823L714.371 123.823" stroke="#929292" strokeWidth="0.5"/>
<path d="M-210.123 165.847L714.37 165.847" stroke="#929292" strokeWidth="0.5"/>
<path d="M-210.122 207.864L714.371 207.864" stroke="#929292" strokeWidth="0.5"/>
<path d="M-210.122 249.891L714.371 249.891" stroke="#929292" strokeWidth="0.5"/>
<path d="M-210.122 291.914L714.371 291.914" stroke="#929292" strokeWidth="0.5"/>
<path d="M-210.123 333.936L714.37 333.936" stroke="#929292" strokeWidth="0.5"/>
<path d="M-210.122 375.958L714.371 375.958" stroke="#929292" strokeWidth="0.5"/>
<path d="M-210.123 417.979L714.37 417.979" stroke="#929292" strokeWidth="0.5"/>
<path d="M462.238 -170.335L462.238 754.159" stroke="#929292" strokeWidth="0.5"/>
<path d="M420.215 -170.335L420.215 754.158" stroke="#929292" strokeWidth="0.5"/>
<path d="M378.192 -170.335L378.192 754.159" stroke="#929292" strokeWidth="0.5"/>
<path d="M336.169 -170.335L336.169 754.159" stroke="#929292" strokeWidth="0.5"/>
<path d="M294.146 -170.335L294.146 754.159" stroke="#929292" strokeWidth="0.5"/>
<path d="M252.123 -170.335L252.123 754.159" stroke="#929292" strokeWidth="0.5"/>
<path d="M210.102 -170.335L210.102 754.159" stroke="#929292" strokeWidth="0.5"/>
<path d="M168.078 -170.335L168.078 754.158" stroke="#929292" strokeWidth="0.5"/>
<path d="M126.055 -170.333L126.055 754.161" stroke="#929292" strokeWidth="0.5"/>
</g>
<path d="M341.653 8.3125L325.635 35.3012L325.38 35.7304L325.809 35.9859C376.466 66.1728 413.133 115.181 427.788 172.319C442.5 229.68 433.822 290.535 403.665 341.498C373.508 392.46 324.341 429.356 266.981 444.068L266.968 444.071L266.956 444.075C228.941 455.989 186.446 453.133 147.574 444.695C108.99 436.32 74.0197 422.456 50.6199 412.142L85.1814 352.298L152.172 359.742C169.584 370.038 184.089 376.696 199.165 379.512C214.274 382.334 229.916 381.29 249.586 376.245C288.959 366.147 322.707 340.821 343.407 305.84C364.107 270.859 370.063 229.087 359.965 189.714C349.916 150.535 324.789 116.924 290.074 96.1985L289.644 95.9415L289.388 96.3726L271.379 126.715L223.152 119.208L173.656 9.97953L293.156 0.8984L341.653 8.3125Z" fill="white" stroke="#333333"/>
<path fillRule="evenodd" clipRule="evenodd" d="M293.609 0.349121L172.729 9.28761L222.784 119.68L240.965 89.0465C275.567 109.705 300.612 143.206 310.628 182.257C320.693 221.502 314.757 263.137 294.124 298.004C273.492 332.871 239.853 358.114 200.609 368.179C161.365 378.245 119.729 372.308 84.8622 351.675L48.6953 412.794C99.7721 443.019 160.764 451.715 218.252 436.971C275.741 422.226 325.018 385.248 355.243 334.171C385.468 283.094 394.164 222.103 379.42 164.614C364.732 107.347 327.982 58.2296 277.212 27.9751L293.609 0.349121Z" fill="#333333"/>
<path d="M200.766 368.987L217.23 409.798L259.403 397.226L237.762 435.543L273.885 460.676L230.434 467.647L233.307 511.56L200.766 481.935L168.224 511.56L171.097 467.647L127.646 460.676L163.77 435.543L142.128 397.226L184.301 409.798L200.766 368.987Z" fill="#FF684C"/>
</svg>