<?xml version="1.0" standalone="no"?>
<!DOCTYPE svg PUBLIC "-//W3C//DTD SVG 20010904//EN"
 "http://www.w3.org/TR/2001/REC-SVG-20010904/DTD/svg10.dtd">
<svg version="1.0" xmlns="http://www.w3.org/2000/svg"
 width="1406.000000pt" height="1268.000000pt" viewBox="0 0 1406.000000 1268.000000"
 preserveAspectRatio="xMidYMid meet">

<g transform="translate(0.000000,1268.000000) scale(0.100000,-0.100000)"
fill="#ff0582" stroke="none">
<path d="M8670 12510 c-19 -5 -59 -14 -88 -21 -62 -14 -75 -33 -41 -57 52 -36
127 -114 172 -180 88 -128 129 -307 107 -468 -12 -95 -27 -138 -93 -266 -63
-123 -82 -205 -82 -358 0 -89 5 -142 18 -185 23 -78 108 -245 124 -245 9 0 12
8 9 23 -23 111 -11 317 26 435 52 169 181 326 411 500 72 55 158 128 191 162
l59 61 -6 67 c-24 256 -367 527 -682 538 -49 2 -106 -1 -125 -6z"/>
<path d="M9777 12233 c-5 -81 -13 -116 -46 -202 -22 -57 -57 -129 -77 -160
-53 -77 -168 -191 -234 -230 -137 -81 -195 -121 -260 -180 -165 -148 -254
-327 -275 -556 -7 -77 14 -241 40 -314 8 -24 13 -46 11 -48 -4 -4 -79 22 -109
38 -10 6 -73 30 -140 55 -67 25 -158 60 -202 79 -44 18 -116 46 -160 61 -44
15 -85 31 -90 35 -6 4 -87 26 -180 48 -94 23 -202 50 -242 61 -115 32 -313 68
-523 95 -107 15 -224 30 -260 35 -171 24 -531 33 -789 21 -276 -13 -286 -14
-617 -60 -228 -32 -393 -61 -479 -86 -27 -8 -99 -26 -160 -41 -64 -15 -152
-46 -210 -74 -55 -25 -115 -53 -134 -60 -101 -40 -478 -245 -516 -280 -11 -10
-41 -33 -67 -52 -129 -90 -216 -172 -526 -490 -73 -75 -164 -163 -203 -195
-171 -140 -378 -263 -578 -340 -128 -50 -405 -126 -521 -143 -179 -27 -296
-67 -400 -138 -224 -152 -370 -409 -395 -693 -13 -146 34 -260 160 -382 88
-86 227 -192 281 -214 37 -16 42 -22 58 -77 51 -182 113 -288 234 -404 84 -80
200 -152 299 -183 l63 -21 0 -172 c0 -186 9 -236 42 -236 38 0 137 114 236
270 l42 65 -1 -60 c0 -33 -4 -107 -9 -165 -9 -106 2 -257 21 -292 24 -44 87
-6 178 106 68 84 207 287 216 315 7 22 37 30 230 61 231 37 425 54 650 54 485
1 921 -79 1356 -249 144 -56 361 -160 494 -236 76 -43 287 -179 295 -189 3 -4
30 -24 60 -45 233 -162 600 -527 750 -745 13 -19 37 -51 53 -70 107 -130 305
-485 410 -735 109 -259 221 -661 243 -870 l6 -60 -29 45 c-49 74 -171 181
-261 228 -95 49 -180 72 -274 72 l-68 0 -40 -85 c-22 -46 -40 -88 -40 -92 -1
-14 -153 -258 -199 -319 -48 -63 -180 -198 -211 -214 -17 -9 -17 -3 -13 118 7
174 -24 492 -48 492 -4 0 -13 -19 -19 -42 -6 -24 -15 -52 -20 -63 -6 -11 -26
-67 -46 -125 -19 -58 -60 -153 -90 -212 -66 -130 -198 -333 -230 -355 -19 -12
-40 -14 -106 -8 -138 12 -217 33 -333 89 -121 59 -220 134 -292 222 -114 140
-128 329 -37 504 74 142 71 270 -8 356 -34 36 -54 48 -122 70 -281 89 -561 25
-765 -175 -137 -133 -183 -221 -254 -476 -14 -51 -13 -335 1 -395 30 -128 55
-222 74 -280 30 -93 127 -284 198 -388 56 -83 208 -250 272 -299 l27 -20 -92
-18 c-51 -9 -110 -23 -132 -30 -22 -7 -73 -22 -113 -34 -82 -25 -98 -43 -61
-72 50 -40 327 -172 428 -205 58 -19 113 -38 121 -43 8 -4 94 -29 190 -55 96
-26 182 -51 191 -55 21 -12 181 -38 308 -51 245 -24 683 -6 866 35 219 50 424
107 450 125 6 3 46 19 90 35 158 56 390 178 606 319 55 36 243 183 306 239
154 138 364 374 470 527 124 179 261 428 324 588 16 42 36 91 43 107 32 72 90
272 128 440 25 108 29 123 34 110 2 -5 12 -73 23 -150 25 -171 41 -407 35
-495 -28 -380 -67 -616 -135 -828 -73 -225 -84 -252 -182 -462 -86 -183 -260
-455 -387 -604 -173 -204 -409 -425 -555 -522 -122 -80 -166 -125 -133 -136
18 -6 201 19 303 42 50 11 167 36 260 56 94 20 195 44 225 54 30 10 120 37
200 60 79 23 162 50 185 59 22 10 72 28 110 41 39 12 107 38 153 57 46 19 86
32 89 29 4 -3 -7 -21 -23 -39 -17 -17 -43 -50 -59 -72 -187 -259 -688 -743
-970 -937 -33 -22 -69 -49 -81 -60 -19 -17 -131 -92 -229 -153 -150 -95 -280
-167 -469 -262 -152 -77 -155 -91 -14 -75 305 35 583 78 698 107 272 68 362
94 540 156 113 39 210 75 215 79 6 4 55 26 110 48 96 39 247 109 330 154 22
12 83 44 135 71 52 27 102 56 110 63 9 7 37 25 62 38 59 31 280 175 293 190 6
7 27 22 48 35 21 13 75 52 120 87 401 312 721 635 993 1002 52 70 98 132 102
137 26 33 183 279 201 313 41 80 53 60 25 -43 -8 -33 -38 -147 -65 -253 -27
-106 -52 -198 -55 -204 -4 -6 -31 -79 -59 -162 -134 -388 -324 -770 -562
-1128 -46 -70 -82 -132 -79 -137 8 -12 203 123 361 248 287 229 537 477 805
801 77 93 275 372 303 427 9 17 23 37 30 45 33 33 247 422 294 532 14 34 36
84 50 111 82 161 237 615 288 840 15 66 38 166 51 221 13 56 24 112 24 125 1
88 42 -134 91 -496 14 -109 22 -674 11 -825 -6 -74 -8 -137 -5 -140 7 -8 36
33 207 291 122 183 330 577 417 789 22 52 45 104 51 115 23 39 121 322 164
475 25 85 54 184 64 220 24 75 72 325 90 455 6 50 16 104 21 120 16 53 39 343
45 570 19 645 -96 1373 -319 2025 -74 214 -149 416 -172 463 -9 18 -36 79 -60
137 -73 175 -358 727 -408 790 -7 8 -21 31 -31 50 -25 47 -142 227 -223 345
-92 134 -152 213 -297 390 -86 106 -244 275 -256 275 -5 0 -11 -19 -14 -42
-35 -312 -55 -407 -125 -598 -147 -401 -431 -773 -780 -1022 -181 -129 -472
-271 -662 -322 -391 -105 -698 -117 -1053 -44 l-159 33 105 16 c58 9 120 22
139 28 19 6 95 27 169 46 74 20 153 44 175 55 22 10 87 40 145 65 58 26 112
53 120 60 8 7 38 24 65 38 81 41 242 161 368 275 64 59 117 109 117 112 0 4
19 27 43 51 56 60 134 161 176 229 19 30 48 78 65 105 62 98 145 282 195 432
115 344 138 738 65 1118 -26 131 -121 398 -190 534 -36 69 -70 132 -78 140 -7
9 -25 37 -40 63 -78 137 -289 373 -426 476 -80 61 -191 140 -280 199 -30 20
-68 45 -83 55 -80 55 -352 178 -392 178 -8 0 -14 -32 -18 -97z"/>
</g>
</svg>
