<svg width="75" height="75" viewBox="0 0 75 75" fill="none" xmlns="http://www.w3.org/2000/svg">
<path d="M74.47 37.4138C74.47 49.6008 68.5757 60.411 59.4837 67.1507C55.6775 69.971 51.3113 72.0785 46.5825 73.2744C43.6702 74.0127 40.6219 74.4037 37.4801 74.4037C34.3382 74.4037 31.2884 74.0127 28.376 73.2744C23.6474 72.0785 19.281 69.971 15.4748 67.1491C6.38278 60.4094 0.490112 49.5994 0.490112 37.4138C0.490112 16.9848 17.0511 0.423828 37.4801 0.423828C57.909 0.423828 74.47 16.9848 74.47 37.4138Z" fill="#5ADAFD"/>
<path d="M59.5199 58.2417C59.3462 57.0777 59.1167 55.8788 58.833 54.6529C58.5823 53.5765 58.291 52.4788 57.9604 51.3646C57.0907 48.4386 55.9449 45.3979 54.5559 42.324C53.9474 40.9802 53.2921 39.6305 52.5931 38.2823C51.9771 37.0941 51.3279 35.9044 50.6439 34.7222C49.9615 33.5385 49.2579 32.382 48.5347 31.2542C47.7179 29.9754 46.877 28.7344 46.0164 27.5356C44.0506 24.7953 41.9898 22.2815 39.8896 20.065C39.091 19.2211 38.2862 18.4209 37.4785 17.6675C36.5591 16.8069 35.6351 16.0083 34.7125 15.276C28.6899 10.4945 23.2985 9.05865 19.5286 11.2343C15.7586 13.4113 14.3062 18.7983 15.4355 26.4062C15.6076 27.5702 15.8387 28.7691 16.1241 29.995C16.3717 31.0714 16.663 32.1691 16.9952 33.2833C17.8649 36.2093 19.0107 39.2515 20.4013 42.3239C21.0083 43.6676 21.6634 45.0158 22.3625 46.364C22.9785 47.5538 23.6292 48.7419 24.3117 49.9256C24.9941 51.1093 25.6977 52.2658 26.4208 53.3935C27.2391 54.6739 28.08 55.9149 28.9392 57.1136C30.905 59.8539 32.9657 62.3662 35.0659 64.5826C35.8647 65.4265 36.6708 66.2282 37.4785 66.9816C38.3979 67.8422 39.3219 68.6393 40.2429 69.3716C42.4578 71.1305 44.5866 72.4364 46.5811 73.2745C51.3097 72.0787 55.6761 69.9711 59.4822 67.1508C60.0135 64.7021 60.0331 61.7021 59.5199 58.2417ZM56.1288 66.6014C55.6894 68.5008 54.8817 69.8022 53.7268 70.468C52.5733 71.1353 51.0424 71.1837 49.1777 70.616C47.1576 69.9984 44.7993 68.6487 42.3566 66.7086C41.5353 66.0564 40.7124 65.3468 39.8895 64.5843C39.0832 63.8354 38.277 63.0352 37.4769 62.1882C36.1029 60.7343 34.7441 59.1429 33.4186 57.4354C32.5338 56.2955 31.6627 55.1043 30.8127 53.8678C29.5791 52.0756 28.3879 50.1884 27.2556 48.2257C26.1217 46.2629 25.083 44.2881 24.1484 42.3239C23.5022 40.9696 22.9058 39.6199 22.3623 38.2837C21.5455 36.2818 20.8465 34.3085 20.2743 32.3925C19.9421 31.2753 19.6508 30.1792 19.4076 29.1057C19.1569 28.0127 18.9532 26.9437 18.7992 25.9066C18.3403 22.8221 18.3508 20.1045 18.8263 18.0466C19.2657 16.1473 20.0749 14.8458 21.2284 14.18C21.8519 13.8207 22.5841 13.6395 23.419 13.6395C24.1316 13.6395 24.9197 13.7708 25.7773 14.0335C27.7974 14.6495 30.1557 16.0008 32.5984 17.9394C33.4197 18.5917 34.2441 19.3012 35.0655 20.0668C35.8732 20.8141 36.678 21.6143 37.4766 22.4598C38.852 23.9137 40.2108 25.5052 41.538 27.2142C42.4227 28.3541 43.2939 29.5453 44.1439 30.7819C45.3759 32.574 46.5672 34.4612 47.6994 36.4224C48.8333 38.3852 49.872 40.3599 50.8066 42.3242C51.4528 43.6799 52.0492 45.0298 52.5927 46.3659C53.4095 48.3678 54.1085 50.3397 54.6807 52.2555C55.0129 53.3727 55.3042 54.4689 55.5488 55.5423C55.7979 56.6354 56.0018 57.7043 56.1558 58.7415C56.615 61.826 56.6045 64.5436 56.1288 66.6014Z" fill="#F2F2F2"/>
<path d="M62.2827 31.1951C61.1881 30.7633 60.0346 30.3632 58.8298 29.9948C57.773 29.6731 56.6769 29.3758 55.5459 29.1056C52.5776 28.396 49.3709 27.8676 46.0147 27.5354C44.5487 27.3889 43.0524 27.2818 41.5366 27.2137C40.1989 27.1519 38.8431 27.1201 37.4768 27.1201C36.1105 27.1201 34.7546 27.1518 33.4154 27.2137C31.8981 27.2817 30.4019 27.3905 28.9359 27.5354C25.5796 27.8676 22.3744 28.396 19.4061 29.1056C18.2753 29.3758 17.1791 29.6733 16.1222 29.9948C14.9174 30.3616 13.7639 30.7633 12.6693 31.1951C5.51749 34.0183 1.5769 37.971 1.5769 42.3237C1.5769 46.6764 5.51749 50.6291 12.6694 53.4539C13.7641 53.8857 14.916 54.2857 16.1207 54.6542C17.1776 54.9758 18.2737 55.2732 19.4046 55.542C22.3729 56.253 25.5796 56.78 28.9375 57.1136C30.4035 57.2585 31.8997 57.3657 33.417 57.4352C34.7547 57.4971 36.1105 57.5273 37.4768 57.5273C38.8431 57.5273 40.1974 57.4971 41.5351 57.4352C43.0524 57.3657 44.5472 57.2585 46.0147 57.1136C49.3709 56.7814 52.5792 56.253 55.5475 55.542C56.6783 55.2718 57.7744 54.9758 58.8314 54.6528C60.0347 54.2859 61.1882 53.8858 62.2827 53.4539C69.4361 50.6291 73.3752 46.6765 73.3752 42.3237C73.3751 37.971 69.4361 34.0183 62.2827 31.1951ZM67.8266 46.3367C66.2836 47.7786 63.9344 49.1449 61.034 50.2908C60.0573 50.6758 59.0305 51.0351 57.9585 51.3643C56.9062 51.6889 55.8117 51.9863 54.6793 52.2551C52.7331 52.7186 50.6753 53.099 48.5329 53.3935C47.1046 53.5913 45.6386 53.7498 44.1424 53.8661C41.9728 54.0398 39.7429 54.1274 37.4766 54.1274C35.2104 54.1274 32.9805 54.0398 30.8109 53.8677C29.3147 53.75 27.8473 53.5915 26.419 53.3937C24.2766 53.0992 22.2187 52.7187 20.2726 52.2552C19.1402 51.9865 18.0457 51.6891 16.9933 51.3644C15.9213 51.0353 14.8947 50.6759 13.9178 50.291C11.0176 49.145 8.66828 47.7787 7.12525 46.3368C5.69998 45.0066 4.9768 43.6569 4.9768 42.3238C4.9768 40.9908 5.69998 39.6409 7.12525 38.3109C8.66828 36.869 11.0174 35.5027 13.9178 34.3567C14.8946 33.9718 15.9213 33.6124 16.9933 33.2833C18.0457 32.9586 19.1402 32.6612 20.2726 32.3925C22.2187 31.929 24.2766 31.5485 26.419 31.254C27.8473 31.0562 29.3147 30.8977 30.8109 30.78C32.9805 30.6079 35.2104 30.5203 37.4766 30.5203C39.7429 30.5203 41.9728 30.6079 44.1424 30.7815C45.6386 30.8979 47.1046 31.0564 48.5329 31.2542C50.6753 31.5486 52.7331 31.9291 54.6793 32.3926C55.8117 32.6614 56.9062 32.9587 57.9585 33.2834C59.0305 33.6126 60.0571 33.9719 61.034 34.3569C63.9343 35.5028 66.2836 36.8691 67.8266 38.311C69.2519 39.6412 69.9751 40.9909 69.9751 42.324C69.9751 43.6569 69.2519 45.0066 67.8266 46.3367Z" fill="#F2F2F2"/>
<path d="M55.4266 11.2343C51.6567 9.05865 46.2653 10.4945 40.2427 15.276C39.3217 16.0083 38.3977 16.8069 37.4783 17.6675C36.6706 18.4209 35.8643 19.2225 35.0657 20.0665C32.9655 22.2828 30.9048 24.7951 28.9375 27.5354C28.0785 28.7341 27.2374 29.9753 26.4208 31.2541C25.6976 32.3818 24.994 33.5383 24.3116 34.722C23.6292 35.9057 22.9785 37.0938 22.3624 38.2836C21.6634 39.6318 21.0081 40.9815 20.4012 42.3237C19.0106 45.3977 17.8648 48.4383 16.9951 51.3643C16.6629 52.4801 16.3716 53.5776 16.1224 54.6541C15.8386 55.8801 15.6076 57.0774 15.4355 58.2414C14.9221 61.7004 14.9417 64.7003 15.4732 67.1492C19.2794 69.971 23.6456 72.0787 28.3744 73.2745C30.3689 72.4366 32.4977 71.1305 34.7126 69.3716C35.635 68.6393 36.559 67.8407 37.4786 66.9816C38.2863 66.2282 39.0911 65.428 39.8897 64.584C41.9883 62.3677 44.0506 59.8538 46.0165 57.1135C46.8755 55.9146 47.7166 54.6736 48.5348 53.3934C49.258 52.2656 49.9615 51.1091 50.644 49.9254C51.3278 48.7432 51.977 47.5551 52.5932 46.3653C53.2922 45.0171 53.9475 43.6674 54.5559 42.3236C55.9449 39.2511 57.0909 36.209 57.9605 33.283C58.291 32.1688 58.5825 31.0711 58.8316 29.9947C59.117 28.7687 59.3464 27.5699 59.5201 26.4059C60.649 18.7983 59.1967 13.4113 55.4266 11.2343ZM54.6809 32.3925C54.1087 34.3085 53.4097 36.2802 52.5929 38.2821C52.0493 39.6183 51.453 40.9681 50.8068 42.3239C49.8722 44.2881 48.8335 46.2629 47.6996 48.2257C46.5673 50.1868 45.3761 52.074 44.1441 53.8662C43.2926 55.1042 42.4215 56.2954 41.5368 57.4353C40.2112 59.1429 38.8524 60.7342 37.477 62.188C36.6784 63.0335 35.8736 63.8337 35.0659 64.5826C34.2446 65.3465 33.4202 66.0561 32.5988 66.7083C30.156 68.6484 27.7976 69.9981 25.7776 70.6157C23.9131 71.1834 22.3821 71.135 21.2286 70.4677C20.0751 69.8019 19.2658 68.5005 18.8266 66.6011C18.351 64.5433 18.3403 61.8257 18.7994 58.7412C18.9534 57.704 19.1572 56.6351 19.4063 55.542C19.6509 54.4686 19.9422 53.3725 20.2744 52.2552C20.8465 50.3393 21.5456 48.3659 22.3624 46.364C22.906 45.0279 23.5023 43.6781 24.1485 42.3239C25.0831 40.3597 26.1218 38.3849 27.2556 36.4221C28.388 34.4593 29.5792 32.5721 30.8127 30.78C31.6628 29.5434 32.5323 28.3522 33.4171 27.2139C34.7442 25.5049 36.103 23.9136 37.4768 22.4596C38.277 21.6125 39.0833 20.8123 39.8894 20.065C40.7123 19.3011 41.535 18.5915 42.3565 17.9393C44.7993 16.0008 47.1577 14.6495 49.1777 14.0334C50.0352 13.7707 50.8233 13.6393 51.5359 13.6393C52.3708 13.6393 53.1045 13.8205 53.7266 14.1799C54.8815 14.8457 55.6893 16.1471 56.1286 18.0465C56.6041 20.1043 56.6148 22.8219 56.1558 25.9064C56.0017 26.9436 55.798 28.0125 55.5473 29.1056C55.3044 30.179 55.013 31.2752 54.6809 32.3925Z" fill="#F2F2F2"/>
<path d="M37.4734 49.0711C41.1998 49.0711 44.2206 46.0502 44.2206 42.3239C44.2206 38.5975 41.1998 35.5767 37.4734 35.5767C33.747 35.5767 30.7262 38.5975 30.7262 42.3239C30.7262 46.0502 33.747 49.0711 37.4734 49.0711Z" fill="#F2F2F2"/>
</svg>

