<svg width="74" height="73" viewBox="0 0 74 73" fill="none" xmlns="http://www.w3.org/2000/svg">
<path d="M73.5107 36.5518C73.5107 39.7954 73.0723 42.9393 72.249 45.9282C70.3253 52.9173 66.3032 59.0604 60.8853 63.6666C54.4772 69.116 46.1184 72.4122 36.9737 72.4122C16.7948 72.4122 0.436646 56.357 0.436646 36.5518C0.436646 16.7466 16.7948 0.691406 36.9737 0.691406C57.1525 0.691406 73.5107 16.7466 73.5107 36.5518Z" fill="#0078CF"/>
<path d="M72.2434 45.9291C70.3196 52.9182 66.2976 59.0613 60.8797 63.6675C60.3503 63.6954 59.797 63.7085 59.2228 63.7085C51.6365 63.7085 47.4206 59.0555 45.3253 55.5646L52.2033 51.5087C52.2033 51.5087 54.5431 56.3887 58.9291 56.3887C63.3165 56.3887 65.0717 54.9529 65.0717 51.6522C65.0717 47.6328 50.8864 46.1984 48.6927 39.3089C46.4991 32.4193 49.4235 22.6579 59.6612 23.3766C66.0589 23.8245 69.6576 26.9085 71.4574 29.1582L64.6331 33.9971C63.1702 29.8359 57.1752 29.8359 56.0044 33.2799C54.8352 36.7254 58.7826 38.7336 64.9254 40.7432C68.0812 41.7751 70.6194 43.6794 72.2434 45.9291Z" fill="#F2F2F2"/>
<path d="M43.3852 24.4758H12.2949V31.6782H23.6883V62.9507H31.9919V31.6782H43.3852V24.4758Z" fill="#F2F2F2"/>
</svg>

